<svg width="48" height="48" viewBox="0 0 48 48" fill="none" xmlns="http://www.w3.org/2000/svg">
<circle cx="24" cy="24" r="20" fill="#1769FF"/>
<path d="M18.9811 16C19.6726 16 20.3114 16.0527 20.8976 16.2107C21.4837 16.3161 21.9645 16.5335 22.3926 16.7969C22.8207 17.0603 23.1368 17.4357 23.3541 17.9165C23.5649 18.3973 23.6768 18.9834 23.6768 19.6223C23.6768 20.3665 23.5188 21.0053 23.1434 21.4861C22.8207 21.9668 22.2938 22.3949 21.6484 22.7111C22.5572 22.9745 23.2487 23.4553 23.6702 24.0941C24.0917 24.7329 24.3618 25.5298 24.3618 26.4387C24.3618 27.1829 24.2037 27.8217 23.9337 28.3552C23.6702 28.8886 23.2422 29.3694 22.7614 29.6855C22.2806 30.0083 21.6945 30.2717 21.0556 30.4297C20.4168 30.5878 19.778 30.6932 19.1391 30.6932L12 30.7064V16H18.9811ZM18.553 21.9668C19.1391 21.9668 19.6199 21.8088 19.9887 21.5388C20.3575 21.2687 20.5222 20.7945 20.5222 20.2084C20.5222 19.8857 20.4695 19.5696 20.3641 19.3588C20.2587 19.1481 20.1007 18.9834 19.8833 18.8254C19.6726 18.72 19.4553 18.6146 19.1918 18.5619C18.9284 18.5092 18.6584 18.5092 18.3422 18.5092H15.2534V21.9734C15.2534 21.9668 18.553 21.9668 18.553 21.9668ZM18.7111 28.2564C19.0338 28.2564 19.3499 28.2037 19.6199 28.151C19.8833 28.0983 20.1534 27.993 20.3641 27.8283C20.5749 27.6637 20.7395 27.5056 20.8976 27.2422C21.003 26.9787 21.1083 26.656 21.1083 26.2806C21.1083 25.5364 20.8976 25.003 20.4695 24.6276C20.0414 24.3048 19.4553 24.1468 18.7637 24.1468H15.2534V28.2498H18.7111V28.2564Z" fill="white"/>
<path d="M28.9983 28.2037C29.4263 28.6318 30.0652 28.8425 30.9148 28.8425C31.5009 28.8425 32.0344 28.6845 32.4625 28.4144C32.8905 28.0917 33.154 27.7756 33.2593 27.4529H35.8674C35.4393 28.7306 34.8005 29.6394 33.9509 30.2256C33.1013 30.759 32.0871 31.0752 30.8621 31.0752C30.0125 31.0752 29.2617 30.9171 28.5702 30.6471C27.8787 30.3836 27.3452 30.0082 26.8644 29.4748C26.3836 28.994 26.0148 28.4079 25.7975 27.7163C25.5341 27.0248 25.4221 26.2806 25.4221 25.4244C25.4221 24.6275 25.5275 23.8767 25.7975 23.1852C26.0675 22.4937 26.4363 21.9076 26.9171 21.3741C27.3979 20.8933 27.984 20.4652 28.6229 20.2018C29.3144 19.9384 30.0059 19.7737 30.8621 19.7737C31.7709 19.7737 32.5678 19.9318 33.2593 20.3072C33.9509 20.6826 34.4843 21.1041 34.9124 21.7429C35.3405 22.3291 35.6566 23.0206 35.874 23.7648C35.9793 24.509 36.032 25.2598 35.9793 26.1094H28.254C28.254 26.9787 28.5702 27.7756 28.9983 28.2037ZM32.3571 22.6057C31.9817 22.2303 31.3955 22.0195 30.704 22.0195C30.2232 22.0195 29.8544 22.1249 29.5317 22.283C29.209 22.441 28.9983 22.6584 28.7875 22.8691C28.5768 23.0799 28.4648 23.3499 28.4121 23.6133C28.3594 23.8767 28.3067 24.0941 28.3067 24.3048H33.1013C32.9959 23.5145 32.7259 22.9811 32.3571 22.6057ZM27.6679 17.0142H33.6347V18.45H27.6679V17.0142Z" fill="white"/>
</svg>
