<svg width="20" height="20" viewBox="0 0 20 20" fill="none" xmlns="http://www.w3.org/2000/svg">
<path d="M18 19.6677H2C0.89543 19.6677 0 18.7723 0 17.6677V6.71672C0.0337512 6.04558 0.397279 5.43459 0.971 5.08472L8.971 0.284719C9.60412 -0.0949064 10.3949 -0.0949064 11.028 0.284719L19.028 5.08472C19.6292 5.44749 19.9976 6.09756 20 6.79972V17.6677C20 18.7723 19.1046 19.6677 18 19.6677ZM2 7.53572V17.6677H18V7.53572L10 12.8687L2 7.53572ZM10 1.99972L3.316 6.00972L10 10.4657L16.683 6.00972L10 1.99972Z" fill="white"/>
</svg>
